<?xml version="1.0" encoding="UTF-8" standalone="no"?>
<!-- Created with Inkscape (http://www.inkscape.org/) -->

<svg
   width="297mm"
   height="210mm"
   viewBox="0 0 1122.5197 793.70081"
   version="1.1"
   id="svg1"
   inkscape:version="1.4.2 (ebf0e940, 2025-05-08)"
   sodipodi:docname="Logo perfekt.svg"
   xmlns:inkscape="http://www.inkscape.org/namespaces/inkscape"
   xmlns:sodipodi="http://sodipodi.sourceforge.net/DTD/sodipodi-0.dtd"
   xmlns:xlink="http://www.w3.org/1999/xlink"
   xmlns="http://www.w3.org/2000/svg"
   xmlns:svg="http://www.w3.org/2000/svg">
  <sodipodi:namedview
     id="namedview1"
     pagecolor="#ffffff"
     bordercolor="#000000"
     borderopacity="0.25"
     inkscape:showpageshadow="2"
     inkscape:pageopacity="0.0"
     inkscape:pagecheckerboard="0"
     inkscape:deskcolor="#d1d1d1"
     inkscape:document-units="mm"
     inkscape:zoom="1.9824244"
     inkscape:cx="531.92445"
     inkscape:cy="388.16109"
     inkscape:window-width="1800"
     inkscape:window-height="1020"
     inkscape:window-x="0"
     inkscape:window-y="44"
     inkscape:window-maximized="1"
     inkscape:current-layer="g403"
     inkscape:export-bgcolor="#ffffff00" />
  <defs
     id="defs1">
    <linearGradient
       id="swatch344"
       inkscape:swatch="solid">
      <stop
         style="stop-color:#b60011;stop-opacity:1;"
         offset="0"
         id="stop344" />
    </linearGradient>
    <linearGradient
       id="linearGradient330"
       inkscape:collect="always">
      <stop
         style="stop-color:#7d0620;stop-opacity:1;"
         offset="0"
         id="stop329" />
      <stop
         style="stop-color:#b7173a;stop-opacity:1;"
         offset="1"
         id="stop330" />
    </linearGradient>
    <linearGradient
       id="linearGradient326"
       inkscape:collect="always">
      <stop
         style="stop-color:#7d0620;stop-opacity:1;"
         offset="0"
         id="stop325" />
      <stop
         style="stop-color:#e3173a;stop-opacity:1;"
         offset="1"
         id="stop326" />
    </linearGradient>
    <linearGradient
       id="linearGradient153"
       inkscape:collect="always">
      <stop
         style="stop-color:#005320;stop-opacity:1;"
         offset="0"
         id="stop152" />
      <stop
         style="stop-color:#00de1f;stop-opacity:1;"
         offset="1"
         id="stop153" />
    </linearGradient>
    <linearGradient
       id="linearGradient149"
       inkscape:collect="always">
      <stop
         style="stop-color:#006e20;stop-opacity:1;"
         offset="0"
         id="stop149" />
      <stop
         style="stop-color:#00d03a;stop-opacity:1;"
         offset="1"
         id="stop150" />
    </linearGradient>
    <linearGradient
       id="linearGradient39"
       inkscape:swatch="gradient">
      <stop
         style="stop-color:#002d00;stop-opacity:1;"
         offset="0"
         id="stop38" />
      <stop
         style="stop-color:#000000;stop-opacity:0;"
         offset="1"
         id="stop39" />
    </linearGradient>
    <linearGradient
       id="linearGradient36"
       inkscape:swatch="gradient">
      <stop
         style="stop-color:#000000;stop-opacity:1;"
         offset="0"
         id="stop36" />
      <stop
         style="stop-color:#000000;stop-opacity:0;"
         offset="1"
         id="stop37" />
    </linearGradient>
    <rect
       x="294.12174"
       y="187.53634"
       width="371.02514"
       height="275.23319"
       id="rect1" />
    <clipPath
       clipPathUnits="userSpaceOnUse"
       id="clipPath134">
      <g
         inkscape:label="Clip"
         id="use134"
         style="fill:url(#linearGradient314);stroke:url(#linearGradient315)">
        <path
           style="opacity:0.99;fill:url(#linearGradient312);fill-opacity:1;fill-rule:nonzero;stroke:url(#linearGradient313)"
           d="m 580.18112,357.44249 2.12132,15.99829"
           id="path312" />
      </g>
    </clipPath>
    <linearGradient
       inkscape:collect="always"
       xlink:href="#linearGradient330"
       id="linearGradient150"
       x1="302.37726"
       y1="312.75879"
       x2="680.375"
       y2="312.75879"
       gradientUnits="userSpaceOnUse" />
    <clipPath
       clipPathUnits="userSpaceOnUse"
       id="clipPath242">
      <path
         id="path243"
         style="fill:#ff0000;fill-opacity:1;fill-rule:nonzero;stroke:none"
         d="m 665.9439,312.16476 v 1.74804 c 1.18682,0.0108 2.37242,0.0267 3.5586,0.0586 -0.65586,-0.80491 1.84084,0.37546 1.26953,-0.34766 -0.002,-3e-5 -0.004,2e-5 -0.006,0 -0.59413,-0.009 -0.89907,-0.30159 -0.91797,-0.60156 l -0.0195,-0.002 c -0.85499,-0.0838 -1.38442,-0.43834 -1.60742,-0.85546 z m 22.29493,0 c -0.43295,0.0679 -0.8668,0.13241 -1.30079,0.19336 0.21173,0.0128 0.42312,0.0267 0.63477,0.041 0.44408,0.0275 0.88828,0.0537 1.33203,0.084 0.2998,-0.10525 0.59882,-0.21224 0.89844,-0.31836 z m 3.2832,0 c 0.14286,0.24312 0.0592,0.58145 -0.33984,0.8125 0.1508,0.21451 0.12905,0.47407 -0.0527,0.65625 0.30553,-0.0105 0.61185,-0.0193 0.91797,-0.0195 0.47407,-2.9e-4 0.76612,0.18221 0.87695,0.40821 0.29227,-0.0184 0.58485,-0.0376 0.87696,-0.0586 0.76247,-0.0731 1.54303,-0.12692 2.26562,-0.40234 0.18067,-0.0689 0.34412,-0.0983 0.48633,-0.0977 0.76798,0.004 0.92718,0.89125 -0.0469,1.26758 -0.63336,0.24474 -1.30595,0.34443 -1.97851,0.41602 0.33931,0.20618 0.24039,0.70676 -0.39844,0.79883 -0.24782,0.0358 -0.49819,0.0484 -0.74805,0.0605 -0.32477,0.0134 -0.64962,0.0165 -0.97461,0.0195 -0.29003,0.003 -0.58105,0.003 -0.87109,0.004 -0.28248,4.7e-4 -0.56519,0.002 -0.84766,0.002 -0.28137,7e-5 -0.56238,-1e-5 -0.84375,0 -0.22323,10e-6 -0.4467,-1e-5 -0.66992,0 -0.22415,0.008 -0.44547,-0.008 -0.66797,-0.0332 -0.15858,-0.022 -0.31871,-0.035 -0.47851,-0.043 -0.13039,-0.0168 -0.25569,1.3e-4 -0.38477,0.0156 -0.20786,0.0262 -0.41775,0.0389 -0.62695,0.0469 -0.19103,0.0264 -0.38208,0.0497 -0.57422,0.0664 -0.16029,0.0252 -0.31776,0.0596 -0.47852,0.082 -0.14122,0.0292 -0.29084,0.0105 -0.43164,0.0371 -0.13688,0.0293 -0.27487,0.0521 -0.41406,0.0664 -0.14904,0.0141 -0.29764,0.0185 -0.44726,0.0215 -0.22267,-0.006 -0.44448,0.0146 -0.66602,0.0332 -0.25964,0.0202 -0.5191,0.0342 -0.7793,0.0449 -0.23796,0.009 -0.47674,0.0107 -0.71484,0.0117 -0.34017,0.0105 -0.6785,-0.016 -1.01758,-0.0391 -0.36342,-0.0201 -0.72655,-0.0316 -1.08984,-0.0547 -0.43364,-0.0231 -0.86822,-0.0544 -1.29883,-0.11133 -0.30023,-0.0432 -0.59767,-0.10259 -0.89648,-0.15429 -0.16957,-0.0328 -0.34142,-0.0523 -0.51368,-0.0625 -0.18969,-0.01 -0.37847,-0.0117 -0.56836,-0.0137 -0.22565,-0.001 -0.45208,-0.002 -0.67773,-0.002 -0.19073,-2.7e-4 -0.38154,4e-5 -0.57227,0 -0.25537,-4e-5 -0.51025,0 -0.76562,0 -0.2913,0.0161 -0.58191,0.0381 -0.87305,0.0566 -0.25552,0.0254 -0.51045,0.0143 -0.76562,-0.006 -0.2074,-0.0182 -0.41495,-0.0331 -0.62305,-0.0391 -0.29986,-0.006 -0.60046,-0.008 -0.90039,-0.01 -0.19107,-7.4e-4 -0.097,6.1e-4 -0.2832,0 -0.59284,-0.002 -0.78209,-0.40868 -0.57032,-0.66993 -0.0221,-0.001 -0.0443,-0.003 -0.0664,-0.004 -1.69372,-0.0695 -3.38866,-0.0941 -5.08399,-0.10938 v 28.07227 h 31.82227 v -31.06959 z" />
    </clipPath>
    <linearGradient
       inkscape:collect="always"
       xlink:href="#linearGradient149"
       id="linearGradient312"
       gradientUnits="userSpaceOnUse"
       x1="302.37727"
       y1="312.75879"
       x2="680.37502"
       y2="312.75879" />
    <linearGradient
       inkscape:collect="always"
       xlink:href="#linearGradient153"
       id="linearGradient313"
       gradientUnits="userSpaceOnUse"
       x1="302.37726"
       y1="312.75879"
       x2="680.375"
       y2="312.75879" />
    <linearGradient
       inkscape:collect="always"
       xlink:href="#linearGradient149"
       id="linearGradient314"
       gradientUnits="userSpaceOnUse"
       x1="302.37727"
       y1="312.75879"
       x2="680.37502"
       y2="312.75879" />
    <linearGradient
       inkscape:collect="always"
       xlink:href="#linearGradient153"
       id="linearGradient315"
       gradientUnits="userSpaceOnUse"
       x1="302.37726"
       y1="312.75879"
       x2="680.375"
       y2="312.75879" />
    <linearGradient
       inkscape:collect="always"
       xlink:href="#linearGradient326"
       id="linearGradient325"
       gradientUnits="userSpaceOnUse"
       x1="302.37727"
       y1="312.75879"
       x2="680.37502"
       y2="312.75879" />
    <filter
       inkscape:collect="always"
       style="color-interpolation-filters:sRGB"
       id="filter345"
       x="-0.0060680648"
       y="-0.01741401"
       width="1.0121361"
       height="1.0348281">
      <feGaussianBlur
         inkscape:collect="always"
         stdDeviation="0.31785443"
         id="feGaussianBlur345" />
    </filter>
    <filter
       inkscape:collect="always"
       style="color-interpolation-filters:sRGB"
       id="filter346"
       x="-0.0040453765"
       y="-0.01160934"
       width="1.0080907"
       height="1.0232187">
      <feGaussianBlur
         inkscape:collect="always"
         stdDeviation="0.31785443"
         id="feGaussianBlur346" />
    </filter>
    <filter
       inkscape:collect="always"
       style="color-interpolation-filters:sRGB"
       id="filter375"
       x="-0.0020226882"
       y="-0.0058046699"
       width="1.0040454"
       height="1.0116093">
      <feGaussianBlur
         inkscape:collect="always"
         stdDeviation="0.31785443"
         id="feGaussianBlur375" />
    </filter>
    <filter
       inkscape:collect="always"
       style="color-interpolation-filters:sRGB"
       id="filter376"
       x="-0.0040453765"
       y="-0.01160934"
       width="1.0080907"
       height="1.0232187">
      <feGaussianBlur
         inkscape:collect="always"
         stdDeviation="0.31785443"
         id="feGaussianBlur376" />
    </filter>
    <filter
       inkscape:collect="always"
       style="color-interpolation-filters:sRGB"
       id="filter424"
       x="-0.045335026"
       y="-0.13010154"
       width="1.09067"
       height="1.2602031">
      <feGaussianBlur
         inkscape:collect="always"
         stdDeviation="6.1705889"
         id="feGaussianBlur424" />
    </filter>
  </defs>
  <g
     inkscape:label="Ebene 1"
     inkscape:groupmode="layer"
     id="layer1">
    <g
       id="g138"
       transform="translate(-20.373515,6.0104078)">
      <g
         id="g403">
        <g
           id="g148"
           style="fill:url(#linearGradient150);stroke-width:1.00157482;stroke-dasharray:none;opacity:1;filter:url(#filter375)"
           transform="translate(55.500001,33.000001)"
           inkscape:export-filename="SILO_logo_API-dark.png"
           inkscape:export-xdpi="300"
           inkscape:export-ydpi="300">
          <g
             id="g324"
             style="fill:url(#linearGradient325);stroke-width:1.00157482;stroke-dasharray:none">
            <path
               d="m 464.8086,250.89649 v 120 h 63.36133 V 354.96095 H 484.00978 V 250.89649 Z"
               style="font-size:192px;font-family:'UbuntuMono Nerd Font';-inkscape-font-specification:'UbuntuMono Nerd Font';white-space:pre;shape-inside:url(#rect1);display:inline;opacity:0.99;fill:url(#linearGradient325);stroke-width:1.00157482;stroke-dasharray:none"
               id="path68" />
            <path
               d="m 411.04884,250.89649 v 120 h 19.19922 v -120 z"
               style="font-size:192px;font-family:'UbuntuMono Nerd Font';-inkscape-font-specification:'UbuntuMono Nerd Font';white-space:pre;shape-inside:url(#rect1);display:inline;opacity:0.99;fill:url(#linearGradient325);stroke-width:1.00157482;stroke-dasharray:none"
               id="path67" />
            <path
               d="m 340.96876,248.01758 c -8.832,0 -15.9365,1.21644 -21.3125,3.64844 -5.376,2.432 -9.27894,6.39835 -11.71094,11.90235 -2.304,5.376 -3.45703,12.67267 -3.45703,21.88867 0,6.272 0.57651,11.45673 1.72851,15.55273 1.28,4.096 3.45535,7.42242 6.52735,9.98242 3.2,2.432 7.55264,4.35372 13.05664,5.76172 5.504,1.28 12.54509,2.23891 21.12109,2.87891 l 18.23828,1.34375 v 35.71289 c -4.992,0.512 -9.0871,0.83099 -12.2871,0.95899 -3.072,0.128 -6.20821,0.19336 -9.40821,0.19336 -6.272,0 -12.86339,-0.38435 -19.77539,-1.15235 -6.784,-0.896 -12.73547,-1.98367 -17.85547,-3.26367 l -2.88086,15.74414 c 6.528,1.664 12.92722,2.81508 19.19922,3.45508 6.272,0.768 12.79999,1.15234 19.58399,1.15234 11.008,0 19.71328,-1.08767 26.11328,-3.26367 6.528,-2.304 11.19962,-6.01672 14.01562,-11.13672 2.816,-5.248 4.22461,-12.28714 4.22461,-21.11914 0,-8.576 -1.21643,-15.36152 -3.64843,-20.35352 -2.304,-4.992 -6.33571,-8.63936 -12.09571,-10.94336 -5.632,-2.432 -13.50519,-3.96742 -23.61719,-4.60742 l -21.31054,-1.34375 v -36.0957 c 2.816,-0.384 5.37568,-0.64153 7.67968,-0.76953 2.304,-0.128 5.31144,-0.19141 9.02344,-0.19141 6.784,0 12.92764,0.25558 18.43164,0.76758 5.504,0.384 11.07308,1.08928 16.70508,2.11328 l 2.4961,-15.16797 c -6.656,-1.28 -13.12058,-2.17745 -19.39258,-2.68945 -6.272,-0.64 -12.73658,-0.95899 -19.39258,-0.95899 z"
               style="font-size:192px;font-family:'UbuntuMono Nerd Font';-inkscape-font-specification:'UbuntuMono Nerd Font';white-space:pre;shape-inside:url(#rect1);display:inline;opacity:0.99;fill:url(#linearGradient325);stroke-width:1.00157482;stroke-dasharray:none"
               id="path65" />
            <path
               d="m 591.14501,248.01694 c -10.112,0 -18.36758,0.8955 -24.76758,2.6875 -6.272,1.664 -11.13579,4.7368 -14.59179,9.2168 -3.456,4.48 -5.88888,10.87922 -7.29688,19.19922 -1.28,8.192 -1.91992,18.81509 -1.91992,31.87109 0,13.056 0.63992,23.68105 1.91992,31.87305 1.408,8.192 3.84088,14.52781 7.29688,19.00781 3.456,4.48 8.31979,7.5528 14.59179,9.2168 4.35229,1.21865 9.58945,2.01062 15.65821,2.40039 0.0321,0.002 0.0577,0.008 0.0898,0.01 h 0.25977 0.11328 63.17383 v 5.9375 l 34.42773,-12.15039 -34.42773,-16.20118 v 6.4336 l -65.49024,-0.0664 v 0.004 h -1.39258 -2.21875 -13.45703 v -79.10352 c 0,-5.248 1.15108,-8.89731 3.45508,-10.94531 2.432,-2.048 6.72124,-3.07032 12.86524,-3.07032 h 39.74414 v 56.14649 a 15.411666,15.035771 0 0 0 -5.14063,11.20898 15.411666,15.035771 0 0 0 15.41211,15.03516 15.411666,15.035771 0 0 0 15.41211,-15.03516 15.411666,15.035771 0 0 0 -5.27344,-11.32421 c 0.0884,-2.97193 0.13282,-6.09813 0.13282,-9.37696 0,-13.056 -0.70333,-23.67909 -2.11133,-31.87109 -1.28,-8.192 -3.64752,-14.52781 -7.10352,-19.00781 -3.456,-4.608 -8.38515,-7.74421 -14.78515,-9.40821 -6.4,-1.792 -14.59218,-2.6875 -24.57618,-2.6875 z"
               style="opacity:0.99;fill:url(#linearGradient325);stroke-width:1.00157482;stroke-dasharray:none"
               id="path311" />
          </g>
        </g>
        <use
           x="0"
           y="0"
           xlink:href="#g148"
           id="use338"
           style="filter:url(#filter376)" />
        <use
           x="0"
           y="0"
           xlink:href="#g148"
           id="use341"
           style="filter:url(#filter346)" />
        <use
           x="0"
           y="0"
           xlink:href="#use338"
           id="use342"
           style="filter:url(#filter345)"
           inkscape:export-filename="use342.png"
           inkscape:export-xdpi="96"
           inkscape:export-ydpi="96" />
        <use
           x="0"
           y="0"
           xlink:href="#use342"
           id="use410" />
        <use
           x="0"
           y="0"
           xlink:href="#use410"
           id="use411" />
        <use
           x="0"
           y="0"
           xlink:href="#use411"
           id="use412" />
        <use
           x="0"
           y="0"
           xlink:href="#use412"
           id="use413" />
        <use
           x="0"
           y="0"
           xlink:href="#use413"
           id="use414" />
        <use
           x="0"
           y="0"
           xlink:href="#use414"
           id="use415" />
        <use
           x="0"
           y="0"
           xlink:href="#use415"
           id="use416" />
        <use
           x="0"
           y="0"
           xlink:href="#use416"
           id="use417" />
        <use
           x="0"
           y="0"
           xlink:href="#use417"
           id="use418" />
        <use
           x="0"
           y="0"
           xlink:href="#use418"
           id="use419" />
        <use
           x="0"
           y="0"
           xlink:href="#use419"
           id="use420" />
        <use
           x="0"
           y="0"
           xlink:href="#use420"
           id="use421" />
        <use
           x="0"
           y="0"
           xlink:href="#use421"
           id="use422" />
        <use
           x="0"
           y="0"
           xlink:href="#use422"
           id="use423" />
        <use
           x="0"
           y="0"
           xlink:href="#use423"
           id="use424"
           style="filter:url(#filter424)" />
      </g>
    </g>
  </g>
</svg>
